<svg xmlns="http://www.w3.org/2000/svg" width="202.7" height="118.5" overflow="visible"><style>.st0{fill:#6b767c}.st1{fill:#00aeef}</style><path class="st0" d="M192.4 91c-5.9 0-8.7-3.4-8.7-3.4-2.2 2.5-5.2 3.8-8.8 3.8-3.7 0-6.6-1.1-8.8-3.2-1.6-1.6-2.7-3.9-3.2-6.9-.3-1.8-.5-4.6-.5-8.2 0-3.6.2-6.3.5-8.2.5-3 1.6-5.3 3.2-6.9 2.1-2.1 5.1-3.2 8.7-3.2 3.7 0 6.6 1.2 8.7 3.6V47h8.9v44zm-8.9-17.9c0-3.4-.3-5.8-1-7.3-.9-2-2.6-3-5.1-3-2.5 0-4.1 1-5 3-.7 1.5-1 3.9-1 7.3s.3 5.9 1 7.4c.9 2 2.5 3 5 3s4.2-1 5.1-3c.6-1.5 1-4 1-7.4"/><path class="st1" d="M79.7 0H79v8.9h.7c16.9 0 31.1 14.3 31.6 31.9.2-6.3 1.7-12.4 4.5-17.9C109 9.3 95.3 0 79.7 0"/><path d="M151.9 0c-10.7 0-20.7 4.3-28.4 12-3.2 3.2-5.8 6.9-7.7 10.9 2.7 5.4 4.3 11.5 4.5 17.9.5-17.6 14.7-31.9 31.6-31.9 16.9 0 31.1 14.3 31.6 31.9h8.9C191.8 18.3 173.7 0 151.9 0" fill="#c1d82f"/><path d="M111.3 40.8h8.9c-.2-6.4-1.8-12.5-4.5-17.9-2.7 5.5-4.2 11.6-4.4 17.9" fill="#00a550"/><path class="st0" d="M100.4 58c-2.2-2-6.4-3.2-10.2-3.2-4.3 0-8.7.8-11.1 4.5-3.4-4.1-7-4.5-11.2-4.5-3.7 0-8 1.1-10.1 3.2-2.6 2.6-3.6 5-3.6 10.2V91h8.9V69.4c0-.7.1-1.2.2-1.7.6-2.6 3-4.6 5.8-4.6 2.4 0 4.5 1.5 5.4 3.6.3.7.5 1.6.5 2.7V91h8.9V69.4c0-.5 0-1 .1-1.4 0-.1 0-.2.1-.3.5-2.5 2.7-4.4 5.3-4.6h.4c.3 0 .6 0 .9.1.2 0 .3.1.4.1 1.9.5 3.4 1.9 4.1 3.7 0 .1.1.2.1.3.1.6.2 1.3.2 2.1v16.4c0 4.1 5.1 5 7.8 5.2h1.5V68.2c-.2-4.5-1.8-7.8-4.4-10.2M156.7 91V68.2c0-4.3-1.2-7.7-3.6-10.1-2.1-2.1-4.9-3.2-8.4-3.2-3.6 0-6.6 1.2-8.9 3.7 0 0-1.4-3.3-8.7-3.3V91h8.9V69.5c0-1.2.2-2.2.5-3.1.9-1.9 2.8-3.3 5.1-3.4h.3c2.5 0 4.6 1.6 5.5 3.7.3.8.4 1.7.4 2.8v16.3c0 3.7 3.8 5 8 5.1h-.6c.9.1 1.5.1 1.5.1zm-.7 0h-.2.2M199.2 84.5c-1.9 0-3.5 1.6-3.5 3.5s1.6 3.5 3.5 3.5 3.5-1.6 3.5-3.5c0-2-1.6-3.5-3.5-3.5m0 6.5c-1.7 0-3.1-1.4-3.1-3.1 0-1.7 1.4-3.1 3.1-3.1 1.7 0 3.1 1.4 3.1 3.1 0 1.8-1.4 3.1-3.1 3.1m1.6-3.8c0-.4-.1-.6-.3-.8-.2-.2-.5-.3-1-.3h-1.6v3.7h.7v-1.5h.9l.6 1.5h.7l-.7-1.6c.2-.1.7-.3.7-1m-1.4.5h-.8v-1.1h.9c.5 0 .7.3.7.5-.1.5-.5.6-.8.6M111.4 55.3h8.9V91h-8.9z"/><g><path class="st1" d="M186.1 109.5c.1-1.4 1-2.5 2.5-2.5 1.4 0 2.3 1.2 2.4 2.5h-4.9zm6.9 1.4c.3-2.8-1.5-5.5-4.4-5.5-2.8 0-4.5 2.3-4.5 4.9 0 2.9 1.6 4.9 4.6 4.9 2 0 3.8-1.1 4.2-3.2h-2c-.4 1-1.1 1.6-2.3 1.6-1.7 0-2.5-1.3-2.5-2.8h6.9zm-18.2 1.1c0 2.2 1.8 3.3 4.2 3.3 1.9 0 4.2-.8 4.2-3 0-1.9-1.5-2.4-3-2.7-1.5-.3-3-.5-3-1.5 0-.8 1.1-1 1.7-1 .9 0 1.7.3 1.9 1.3h2.2c-.3-2.1-2-2.9-3.9-2.9-1.7 0-3.9.6-3.9 2.7 0 1.9 1.5 2.4 3 2.8 1.5.3 3 .5 3.1 1.6.1 1.1-1.3 1.2-2.1 1.2-1.1 0-2-.4-2.1-1.6h-2.3zm-5.6 3.3c3 0 4.7-2.1 4.7-4.9 0-2.9-1.7-4.9-4.7-4.9s-4.7 2.1-4.7 4.9c-.1 2.8 1.6 4.9 4.7 4.9m0-1.7c-1.8 0-2.7-1.7-2.7-3.3 0-1.6.8-3.3 2.7-3.3 1.9 0 2.7 1.7 2.7 3.3-.1 1.7-.9 3.3-2.7 3.3m-14.9 4.9h2.1v-4.7c.7 1 1.9 1.5 3.1 1.5 2.8 0 4-2.4 4-4.9 0-2.7-1.4-5-4.4-5-1.2 0-2.3.5-2.9 1.5v-1.3h-2v12.9zm7.2-8.2c0 1.6-.7 3.3-2.6 3.3-1.7 0-2.6-1.4-2.6-3.3 0-2 .9-3.3 2.6-3.3 1.7 0 2.6 1.6 2.6 3.3m-13.6 4.7h2.1v-4.5c0-2.1 1.1-3.2 2.5-3.2.3 0 .6.1.9.1v-2c-.2 0-.3-.1-.8-.1-1.3 0-2.5 1.1-2.7 2.1v-1.8H148v9.4zm-2-9.3h-2.1v5.4c0 1.5-.6 2.6-2.3 2.6-1.1 0-1.8-.6-1.8-2.2v-5.7h-2.1v5.9c0 2.4 1.1 3.7 3.5 3.7 1 0 2.2-.6 2.7-1.6v1.3h2v-9.4zM127 118.5h2.1v-4.7c.7 1 1.9 1.5 3.1 1.5 2.8 0 4-2.4 4-4.9 0-2.7-1.4-5-4.4-5-1.2 0-2.3.5-2.9 1.5v-1.3h-2v12.9zm7.2-8.2c0 1.6-.7 3.3-2.6 3.3-1.7 0-2.6-1.4-2.6-3.3 0-2 .9-3.3 2.6-3.3 1.7 0 2.6 1.6 2.6 3.3m-13.5-8.2h-2.1v4.8c-.6-1-1.9-1.5-3.1-1.5-2.1 0-4.1 1.5-4.1 4.9 0 2.8 1.4 5 4.4 5 1.2 0 2.4-.5 2.9-1.5v1.3h2v-13zm-7.2 8.3c0-1.7.7-3.4 2.6-3.4 1.6 0 2.6 1.2 2.6 3.3 0 1.6-.8 3.3-2.6 3.3s-2.6-1.5-2.6-3.2m-11.8 4.6h2.1v-5.5c0-1.4.9-2.5 2.3-2.5 1.2 0 1.8.6 1.8 2.1v5.9h2.1v-6.4c0-2.1-1.3-3.2-3.3-3.2-1.2 0-2.3.6-2.9 1.7v-1.4h-2v9.3zm-1.9-6.9c0-2-1.9-2.7-3.8-2.7-2.1 0-4.1.7-4.3 3.1h2.1c.1-1 .9-1.5 2.1-1.5.8 0 1.9.2 1.9 1.3 0 1.2-1.3 1.1-2.8 1.3-1.7.2-3.6.6-3.6 2.9 0 1.8 1.5 2.7 3.2 2.7 1.1 0 2.4-.3 3.2-1.1.2.9.8 1.1 1.6 1.1.3 0 1-.1 1.3-.2v-1.4h-.5c-.4 0-.5-.2-.5-.7v-4.8zm-2.1 3.8c0 1.3-1.4 1.8-2.3 1.8-.7 0-1.9-.3-1.9-1.2 0-1.1.8-1.4 1.7-1.6.9-.2 1.9-.1 2.5-.6v1.6zm-18.2-2.4c.1-1.4 1-2.5 2.5-2.5 1.4 0 2.3 1.2 2.4 2.5h-4.9zm6.9 1.4c.3-2.8-1.5-5.5-4.4-5.5-2.8 0-4.5 2.3-4.5 4.9 0 2.9 1.6 4.9 4.6 4.9 2 0 3.8-1.1 4.2-3.2h-2c-.4 1-1.1 1.6-2.3 1.6-1.7 0-2.5-1.3-2.5-2.8h6.9zm-19.3 7.6h2.1v-4.7c.7 1 1.9 1.5 3.1 1.5 2.8 0 4-2.4 4-4.9 0-2.7-1.4-5-4.4-5-1.2 0-2.3.5-2.9 1.5v-1.3h-2v12.9zm7.3-8.2c0 1.6-.7 3.3-2.6 3.3-1.7 0-2.6-1.4-2.6-3.3 0-2 .9-3.3 2.6-3.3 1.7 0 2.6 1.6 2.6 3.3m-13.5 5c3 0 4.7-2.1 4.7-4.9 0-2.9-1.7-4.9-4.7-4.9s-4.7 2.1-4.7 4.9c0 2.8 1.7 4.9 4.7 4.9m0-1.7c-1.9 0-2.7-1.7-2.7-3.3 0-1.6.8-3.3 2.7-3.3 1.8 0 2.7 1.7 2.7 3.3 0 1.7-.8 3.3-2.7 3.3M46.5 115h2.1v-5.5c0-1.4.9-2.5 2.3-2.5 1.2 0 1.8.6 1.8 2.1v5.9h2.1v-6.4c0-2.1-1.3-3.2-3.3-3.2-1.2 0-2.3.6-2.8 1.5v-4.8h-2.1V115zm-9 0h1.2c0 .8-.4 1.6-1.2 1.8v1.1c1.4-.3 2.4-1.4 2.4-2.9v-2.4h-2.5v2.4zm-11 3.5h2.1v-4.7c.7 1 1.9 1.5 3.1 1.5 2.8 0 4-2.4 4-4.9 0-2.7-1.4-5-4.4-5-1.2 0-2.3.5-2.9 1.5v-1.3h-2v12.9zm7.3-8.2c0 1.6-.7 3.3-2.6 3.3-1.7 0-2.6-1.4-2.6-3.3 0-2 .9-3.3 2.6-3.3 1.7 0 2.6 1.6 2.6 3.3M22.4 115h2.1v-12.9h-2.1V115zm-8.2-5.5c.1-1.4 1-2.5 2.5-2.5 1.4 0 2.3 1.2 2.4 2.5h-4.9zm6.9 1.4c.3-2.8-1.5-5.5-4.4-5.5-2.8 0-4.5 2.3-4.5 4.9 0 2.9 1.6 4.9 4.6 4.9 2 0 3.8-1.1 4.2-3.2h-2c-.4 1-1.1 1.6-2.3 1.6-1.7 0-2.5-1.3-2.5-2.8h6.9zM0 115h2.3v-5.8h5.9v5.8h2.3v-12.9H8.2v5.1H2.3v-5.1H0V115z"/></g></svg>